<?xml version="1.0" encoding="utf-8"?>
<!-- Generator: Adobe Illustrator 16.2.0, SVG Export Plug-In . SVG Version: 6.00 Build 0)  -->
<!DOCTYPE svg PUBLIC "-//W3C//DTD SVG 1.1//EN" "http://www.w3.org/Graphics/SVG/1.1/DTD/svg11.dtd">
<svg version="1.1" id="Слой_1" xmlns="http://www.w3.org/2000/svg" xmlns:xlink="http://www.w3.org/1999/xlink" x="0px" y="0px"
	 width="100px" height="100px" viewBox="15 6.5 100 100" enable-background="new 15 6.5 100 100" xml:space="preserve">
<rect x="15" y="6.5" fill="#4D739F" width="100" height="100"/>
<g>
	<path fill-rule="evenodd" clip-rule="evenodd" fill="#FFFFFF" d="M76.545,38.22c-1.506,0.879-2.979,1.748-4.459,2.604
		c-0.49,0.286-0.84-0.12-1.199-0.327c-4.354-2.497-8.706-4.987-13.03-7.532c-0.727-0.428-1.262-0.419-1.949,0.023
		c-1.24,0.807-2.946,1.255-3.691,2.37c-0.753,1.122-0.21,2.88-0.218,4.359c-0.015,5.622-0.003,11.241-0.003,16.865
		c0,0.436,0,0.877,0,1.587c-1.698-0.987-3.244-1.875-4.778-2.777c-0.334-0.2-0.233-0.581-0.233-0.884c0-6.828,0-13.652,0-20.477
		c0-1.104,0.48-1.922,1.433-2.471c2.367-1.363,4.73-2.723,7.091-4.085c0.88-0.503,1.771-0.509,2.637-0.01
		c6.047,3.482,12.092,6.982,18.131,10.477C76.346,37.98,76.389,38.053,76.545,38.22z M63.024,24.468
		c5.247,3.028,10.433,6.168,15.774,9.013c2.252,1.199,3.543,2.522,2.975,5.154c-0.08,0.385-0.055,0.808,0,1.2
		c0.104,0.793-0.236,1.226-0.924,1.613c-3.389,1.905-6.756,3.854-10.115,5.825c-1.273,0.745-3.07,1.138-3.658,2.357
		c-0.586,1.211-0.168,2.907-0.189,4.389c-0.004,0.079,0.002,0.16,0,0.24c-0.076,0.816,0.266,0.743,0.814,0.422
		c5.869-3.396,11.746-6.783,17.615-10.173c0.949-0.549,1.418-1.338,1.406-2.464c-0.031-2.694-0.025-5.378,0-8.069
		c0.008-1.075-0.424-1.861-1.334-2.385c-5.979-3.446-11.965-6.887-17.939-10.334c-0.322-0.186-0.6-0.341-0.992-0.111
		c-1.436,0.859-2.895,1.691-4.527,2.636C62.42,24.093,62.715,24.292,63.024,24.468z M61.955,46.083c0-1.336,0-2.669-0.007-4.005
		c-0.003-0.42,0.175-0.949-0.287-1.221c-1.491-0.893-3.015-1.746-4.557-2.628c-0.076,0.251-0.12,0.325-0.12,0.403
		c0,1.472,0,2.949,0,4.42L61.955,46.083z M86.709,49.781c-0.463-0.076-0.662,0.161-0.895,0.294
		c-5.492,3.16-11.037,6.241-16.449,9.545c-1.791,1.095-3.236,1.427-4.89,0c-0.451-0.382-1.015-0.661-1.567-0.895
		c-0.789-0.337-0.953-0.904-0.953-1.716c0.011-2.211,0.011-4.423,0.007-6.636l-4.982-2.92c-0.003,4.044-0.007,8.087-0.007,12.129
		c0,1.02,0.495,1.753,1.363,2.252c2.357,1.363,4.728,2.717,7.084,4.096c0.957,0.555,1.884,0.584,2.851,0.028
		c5.936-3.435,11.881-6.86,17.822-10.289c0.32-0.179,0.627-0.334,0.623-0.785C86.701,53.173,86.709,51.465,86.709,49.781z"/>
	<g>
		<g>
			<path fill="#FFFFFF" d="M26.55,83.911v-7.313h1.888v4.309l2.961-4.309h1.95v7.313h-1.895v-4.518l-3.082,4.518H26.55z"/>
			<path fill="#FFFFFF" d="M39.596,83.911v-2.938h-3.039v2.938H34.67v-7.313h1.886v2.729h3.039v-2.729h1.886v7.313H39.596z"/>
			<path fill="#FFFFFF" d="M46.016,83.911v-0.745c-2.26-0.208-3.586-1.195-3.586-2.906c0-1.7,1.327-2.698,3.586-2.906v-0.756h1.899
				v0.756c2.257,0.208,3.583,1.206,3.583,2.906c0,1.723-1.326,2.698-3.583,2.906v0.745H46.016z M46.016,81.488v-2.457
				c-1.106,0.143-1.667,0.561-1.667,1.229C44.348,80.939,44.909,81.348,46.016,81.488z M47.915,79.031v2.457
				c1.106-0.141,1.665-0.549,1.665-1.229C49.58,79.592,49.021,79.174,47.915,79.031z"/>
			<path fill="#FFFFFF" d="M52.085,80.26c0-2.227,1.678-3.783,3.915-3.783c2.239,0,3.906,1.557,3.906,3.783S58.239,84.045,56,84.045
				C53.764,84.045,52.085,82.486,52.085,80.26z M57.985,80.26c0-1.193-0.777-2.115-1.985-2.115c-1.218,0-1.996,0.922-1.996,2.115
				c0,1.185,0.778,2.117,1.996,2.117C57.208,82.377,57.985,81.444,57.985,80.26z"/>
			<path fill="#FFFFFF" d="M60.864,83.911v-7.313h3.663c1.646,0,2.544,1.107,2.544,2.434c0,1.316-0.898,2.426-2.544,2.426H62.75
				v2.454H60.864z M65.152,79.031c0-0.504-0.374-0.789-0.877-0.789H62.75v1.569h1.524C64.778,79.812,65.152,79.526,65.152,79.031z"
				/>
			<path fill="#FFFFFF" d="M74.336,83.911v-4.759l-1.854,4.759h-0.834l-1.844-4.759v4.759H67.92v-7.313h2.619l1.525,3.969
				l1.535-3.969h2.621v7.313H74.336z"/>
			<path fill="#FFFFFF" d="M76.818,83.484l0.748-1.469c0.252,0.186,0.58,0.361,0.943,0.361c0.471,0,0.678-0.176,0.898-0.547
				l-2.645-5.232h2.129l1.578,3.42l1.59-3.42h2.129l-2.971,5.877c-0.463,0.898-1.197,1.57-2.545,1.57
				C77.971,84.045,77.27,83.848,76.818,83.484z"/>
			<path fill="#FFFFFF" d="M89.654,83.911v-5.669h-3.039v5.669H84.73v-7.313h6.811v7.313H89.654z"/>
			<path fill="#FFFFFF" d="M97.83,83.911l-0.361-1.052h-2.885l-0.363,1.052h-2.137l2.752-7.313h2.367l2.764,7.313H97.83z
				 M96.02,78.461l-0.932,2.754h1.865L96.02,78.461z"/>
			<path fill="#FFFFFF" d="M104.809,83.911l-1.92-2.75l-0.492,0.612v2.138h-1.887v-7.313h1.887v3.004l2.25-3.004h2.324l-2.842,3.42
				l2.994,3.894H104.809z"/>
		</g>
		<path fill="#FFFFFF" d="M28.596,91.082c-0.221,0-0.42-0.022-0.602-0.064c-0.178-0.041-0.338-0.099-0.481-0.175
			c-0.139-0.077-0.263-0.169-0.367-0.276c-0.1-0.105-0.186-0.224-0.252-0.352c-0.067-0.131-0.116-0.27-0.149-0.418
			s-0.049-0.301-0.049-0.46c0-0.157,0.018-0.304,0.049-0.456c0.035-0.145,0.086-0.285,0.156-0.41
			c0.072-0.129,0.156-0.25,0.262-0.355c0.104-0.109,0.227-0.201,0.367-0.276c0.143-0.077,0.301-0.138,0.479-0.18
			c0.174-0.044,0.371-0.063,0.586-0.063c0.219,0,0.42,0.02,0.6,0.06c0.179,0.044,0.34,0.101,0.48,0.177
			c0.141,0.077,0.262,0.168,0.366,0.272c0.102,0.11,0.188,0.228,0.254,0.356c0.068,0.127,0.117,0.267,0.15,0.415
			c0.033,0.148,0.049,0.302,0.049,0.461c0,0.155-0.016,0.308-0.051,0.454c-0.033,0.146-0.088,0.287-0.156,0.412
			c-0.069,0.131-0.154,0.252-0.259,0.356c-0.107,0.109-0.23,0.199-0.369,0.278c-0.141,0.076-0.304,0.138-0.479,0.18
			C29.006,91.06,28.811,91.082,28.596,91.082z M28.596,90.496c0.135,0,0.26-0.016,0.367-0.045c0.109-0.026,0.206-0.066,0.29-0.117
			s0.156-0.112,0.217-0.183c0.058-0.071,0.111-0.149,0.148-0.237c0.038-0.084,0.064-0.175,0.084-0.275
			c0.02-0.095,0.03-0.195,0.03-0.302c0-0.103-0.01-0.204-0.03-0.302c-0.02-0.102-0.047-0.189-0.084-0.275
			c-0.037-0.086-0.09-0.164-0.148-0.236c-0.062-0.07-0.133-0.132-0.217-0.182s-0.18-0.092-0.29-0.119
			c-0.107-0.028-0.232-0.043-0.367-0.043c-0.137,0-0.258,0.015-0.369,0.043c-0.107,0.027-0.206,0.069-0.287,0.119
			c-0.084,0.05-0.158,0.111-0.217,0.182c-0.059,0.072-0.11,0.15-0.149,0.236c-0.037,0.086-0.066,0.174-0.084,0.275
			c-0.021,0.098-0.03,0.199-0.03,0.302c0,0.106,0.009,0.207,0.03,0.302c0.018,0.101,0.047,0.191,0.084,0.275
			c0.039,0.088,0.09,0.166,0.149,0.237c0.059,0.07,0.133,0.132,0.217,0.183c0.082,0.051,0.18,0.091,0.287,0.117
			C28.338,90.48,28.459,90.496,28.596,90.496z M33.063,91.01v-2.799h-1.227v-0.545h3.203v0.545h-1.231v2.799H33.063z M36.607,91.01
			v-3.344h1.478c0.171,0,0.326,0.009,0.473,0.029c0.14,0.018,0.27,0.051,0.385,0.091c0.118,0.038,0.217,0.09,0.305,0.147
			c0.09,0.063,0.163,0.131,0.222,0.213c0.058,0.084,0.102,0.173,0.135,0.274c0.029,0.103,0.044,0.214,0.044,0.341
			c0,0.119-0.015,0.231-0.044,0.333c-0.033,0.103-0.079,0.192-0.139,0.273c-0.061,0.083-0.135,0.155-0.228,0.214
			c-0.088,0.063-0.195,0.112-0.313,0.156c-0.122,0.041-0.257,0.073-0.409,0.094c-0.151,0.02-0.318,0.031-0.497,0.031h-0.666v1.146
			H36.607z M37.973,89.317c0.168,0,0.309-0.013,0.426-0.032c0.114-0.02,0.206-0.055,0.279-0.104c0.069-0.047,0.12-0.104,0.153-0.172
			c0.027-0.072,0.045-0.153,0.045-0.25c0-0.095-0.018-0.172-0.045-0.24c-0.033-0.072-0.084-0.128-0.15-0.174
			c-0.068-0.047-0.156-0.077-0.264-0.1c-0.113-0.023-0.244-0.035-0.398-0.035h-0.666v1.106H37.973z M44.152,91.01l-0.359-0.693
			H41.89l-0.357,0.693h-0.823l1.751-3.344h0.773l1.753,3.344H44.152z M43.105,88.906c-0.043-0.086-0.088-0.172-0.131-0.26
			c-0.043-0.084-0.085-0.173-0.131-0.26c-0.045,0.087-0.09,0.176-0.131,0.265c-0.045,0.087-0.088,0.174-0.133,0.259l-0.413,0.829
			h1.354L43.105,88.906z M49.388,90.865c-0.086,0.036-0.172,0.064-0.262,0.086c-0.088,0.031-0.184,0.054-0.283,0.072
			c-0.1,0.017-0.211,0.031-0.332,0.041c-0.121,0.012-0.258,0.018-0.413,0.018c-0.219,0-0.42-0.022-0.6-0.064
			c-0.182-0.041-0.341-0.099-0.479-0.175c-0.142-0.077-0.264-0.169-0.363-0.276c-0.105-0.105-0.19-0.224-0.256-0.352
			c-0.069-0.131-0.117-0.27-0.149-0.418c-0.033-0.148-0.049-0.301-0.049-0.46c0-0.157,0.018-0.304,0.051-0.456
			c0.036-0.145,0.086-0.285,0.152-0.41c0.072-0.129,0.159-0.25,0.262-0.355c0.106-0.109,0.228-0.201,0.368-0.276
			c0.141-0.077,0.299-0.138,0.478-0.18c0.177-0.044,0.374-0.063,0.586-0.063c0.129,0,0.256,0.004,0.371,0.016
			c0.117,0.014,0.227,0.033,0.333,0.054c0.105,0.022,0.199,0.048,0.293,0.081c0.086,0.027,0.17,0.059,0.244,0.093v0.585
			c-0.072-0.031-0.15-0.061-0.234-0.092c-0.088-0.033-0.182-0.059-0.281-0.082c-0.098-0.023-0.205-0.044-0.319-0.058
			c-0.109-0.017-0.23-0.022-0.355-0.022c-0.135,0-0.26,0.017-0.371,0.041c-0.112,0.027-0.211,0.064-0.299,0.114
			c-0.088,0.049-0.163,0.106-0.227,0.179c-0.067,0.069-0.123,0.15-0.162,0.234c-0.043,0.087-0.074,0.182-0.094,0.281
			c-0.026,0.102-0.033,0.207-0.033,0.317c0,0.106,0.007,0.207,0.029,0.302c0.02,0.101,0.048,0.193,0.09,0.279
			c0.042,0.086,0.093,0.166,0.156,0.238c0.063,0.069,0.139,0.133,0.227,0.186c0.088,0.053,0.188,0.092,0.303,0.123
			c0.112,0.028,0.239,0.039,0.381,0.039c0.104,0,0.208-0.004,0.314-0.016c0.107-0.008,0.213-0.023,0.321-0.041
			c0.105-0.018,0.209-0.039,0.311-0.066c0.104-0.025,0.201-0.053,0.293-0.084V90.865z M53.62,91.01v-2.799h-1.282l-0.014,0.297
			c-0.012,0.246-0.027,0.473-0.051,0.674c-0.021,0.205-0.049,0.391-0.083,0.557c-0.031,0.166-0.068,0.311-0.113,0.443
			c-0.041,0.133-0.092,0.245-0.147,0.342c-0.056,0.1-0.119,0.184-0.186,0.251c-0.068,0.068-0.143,0.127-0.223,0.168
			c-0.08,0.043-0.17,0.075-0.262,0.095c-0.093,0.022-0.197,0.027-0.309,0.027c-0.029,0-0.064,0-0.1-0.001
			c-0.033-0.004-0.072-0.009-0.107-0.017c-0.038-0.004-0.073-0.012-0.104-0.021c-0.033-0.009-0.064-0.021-0.088-0.033v-0.52
			c0.042,0.007,0.078,0.015,0.114,0.02c0.033,0.004,0.068,0.007,0.107,0.007c0.063,0,0.125-0.012,0.182-0.031
			c0.057-0.018,0.111-0.044,0.162-0.088c0.049-0.038,0.096-0.089,0.135-0.148c0.043-0.064,0.082-0.139,0.117-0.221
			c0.033-0.085,0.065-0.182,0.092-0.291c0.025-0.107,0.051-0.229,0.07-0.361c0.021-0.134,0.034-0.283,0.045-0.443
			c0.016-0.162,0.021-0.335,0.025-0.524l0.021-0.726h2.739v3.344H53.62z M56.279,91.01v-3.344h2.816v0.545h-2.07v0.812H58.8v0.542
			h-1.775v0.9h2.088v0.545H56.279z M60.846,91.01v-3.344h1.613c0.238,0,0.444,0.02,0.613,0.062c0.168,0.039,0.303,0.099,0.411,0.178
			c0.105,0.079,0.186,0.179,0.23,0.294c0.051,0.111,0.072,0.246,0.072,0.396c0,0.084-0.009,0.163-0.029,0.229
			c-0.021,0.068-0.053,0.13-0.092,0.188c-0.041,0.053-0.09,0.098-0.148,0.143c-0.057,0.041-0.123,0.078-0.195,0.109
			c0.107,0.036,0.201,0.072,0.283,0.126c0.086,0.048,0.157,0.104,0.213,0.168c0.061,0.068,0.104,0.14,0.135,0.22
			c0.031,0.082,0.046,0.172,0.046,0.268c0,0.091-0.011,0.179-0.033,0.263c-0.019,0.085-0.054,0.159-0.097,0.229
			c-0.047,0.072-0.106,0.139-0.18,0.193c-0.074,0.057-0.164,0.105-0.27,0.148c-0.104,0.038-0.225,0.07-0.365,0.095
			c-0.139,0.021-0.299,0.034-0.477,0.034H60.846z M62.395,89.05c0.105,0,0.199-0.009,0.275-0.027
			c0.084-0.021,0.148-0.053,0.201-0.089c0.053-0.039,0.092-0.084,0.119-0.137c0.025-0.055,0.04-0.113,0.04-0.181
			c0-0.066-0.014-0.12-0.04-0.177c-0.027-0.051-0.066-0.098-0.119-0.134c-0.053-0.037-0.117-0.065-0.201-0.085
			c-0.076-0.02-0.17-0.026-0.275-0.026h-0.807v0.855H62.395z M62.568,90.48c0.124,0,0.229-0.009,0.313-0.029
			c0.086-0.02,0.155-0.051,0.208-0.091c0.052-0.036,0.094-0.084,0.117-0.144c0.025-0.056,0.035-0.117,0.035-0.193
			c0-0.072-0.01-0.137-0.035-0.193c-0.023-0.057-0.065-0.107-0.117-0.148c-0.053-0.037-0.121-0.068-0.208-0.092
			c-0.084-0.021-0.189-0.033-0.313-0.033h-0.981v0.924H62.568z M67.418,91.082c-0.219,0-0.42-0.022-0.6-0.064
			c-0.178-0.041-0.34-0.099-0.479-0.175c-0.141-0.077-0.264-0.169-0.367-0.276c-0.102-0.105-0.188-0.224-0.254-0.352
			c-0.068-0.131-0.117-0.27-0.15-0.418c-0.031-0.148-0.051-0.301-0.051-0.46c0-0.157,0.02-0.304,0.055-0.456
			c0.031-0.145,0.086-0.285,0.156-0.41c0.068-0.129,0.154-0.25,0.26-0.355c0.104-0.109,0.227-0.201,0.369-0.276
			c0.139-0.077,0.299-0.138,0.475-0.18c0.176-0.044,0.373-0.063,0.586-0.063c0.223,0,0.424,0.02,0.604,0.06
			c0.178,0.044,0.338,0.101,0.479,0.177c0.143,0.077,0.264,0.168,0.365,0.272c0.104,0.11,0.188,0.228,0.256,0.356
			c0.068,0.127,0.117,0.267,0.15,0.415s0.049,0.302,0.049,0.461c0,0.155-0.018,0.308-0.051,0.454
			c-0.035,0.146-0.088,0.287-0.154,0.412c-0.072,0.131-0.158,0.252-0.262,0.356c-0.107,0.109-0.229,0.199-0.369,0.278
			c-0.143,0.076-0.299,0.138-0.477,0.18S67.633,91.082,67.418,91.082z M67.418,90.496c0.139,0,0.26-0.016,0.369-0.045
			c0.109-0.026,0.209-0.066,0.289-0.117c0.086-0.051,0.156-0.112,0.217-0.183c0.063-0.071,0.111-0.149,0.15-0.237
			c0.039-0.084,0.064-0.175,0.084-0.275c0.02-0.095,0.027-0.195,0.027-0.302c0-0.103-0.008-0.204-0.027-0.302
			c-0.02-0.102-0.045-0.189-0.084-0.275s-0.088-0.164-0.15-0.236c-0.061-0.07-0.131-0.132-0.217-0.182
			c-0.08-0.05-0.18-0.092-0.289-0.119c-0.109-0.028-0.23-0.043-0.369-0.043c-0.135,0-0.256,0.015-0.367,0.043
			c-0.107,0.027-0.205,0.069-0.287,0.119c-0.086,0.05-0.156,0.111-0.219,0.182c-0.059,0.072-0.107,0.15-0.146,0.236
			s-0.066,0.174-0.088,0.275c-0.016,0.098-0.025,0.199-0.025,0.302c0,0.106,0.01,0.207,0.025,0.302
			c0.021,0.101,0.049,0.191,0.088,0.275c0.039,0.088,0.088,0.166,0.146,0.237c0.063,0.07,0.133,0.132,0.219,0.183
			c0.082,0.051,0.18,0.091,0.287,0.117C67.162,90.48,67.283,90.496,67.418,90.496z M71.035,87.666h0.725v2.088
			c0,0.02,0,0.049,0,0.084c0,0.029,0,0.063,0,0.1c0,0.034,0,0.066,0,0.101c0,0.031,0,0.062,0,0.081
			c0.02-0.02,0.041-0.05,0.063-0.075c0.023-0.029,0.047-0.061,0.068-0.084c0.023-0.033,0.043-0.06,0.066-0.087
			c0.021-0.028,0.041-0.055,0.059-0.076l1.691-2.131h0.869v3.344H73.85v-2.083c0-0.023,0-0.051,0-0.083c0-0.034,0-0.066,0-0.102
			c0-0.034,0-0.067,0-0.1c0-0.036,0-0.062,0-0.087c-0.018,0.025-0.043,0.051-0.063,0.079c-0.023,0.03-0.049,0.057-0.07,0.091
			c-0.023,0.028-0.047,0.058-0.066,0.084c-0.023,0.027-0.041,0.05-0.059,0.071l-1.689,2.129h-0.867V87.666z M73.656,86.718
			c-0.006,0.106-0.027,0.202-0.064,0.296c-0.037,0.09-0.09,0.17-0.162,0.24c-0.068,0.068-0.156,0.124-0.26,0.165
			c-0.105,0.038-0.229,0.062-0.367,0.062s-0.264-0.023-0.369-0.062c-0.1-0.041-0.189-0.097-0.258-0.165
			c-0.07-0.07-0.127-0.15-0.16-0.24c-0.041-0.094-0.061-0.189-0.068-0.296h0.449c0.014,0.038,0.031,0.071,0.053,0.106
			c0.021,0.033,0.051,0.061,0.082,0.09c0.035,0.021,0.074,0.044,0.117,0.055c0.045,0.016,0.098,0.024,0.154,0.024
			c0.059,0,0.107-0.009,0.154-0.024c0.045-0.011,0.082-0.033,0.115-0.055c0.035-0.029,0.063-0.057,0.084-0.09
			c0.023-0.035,0.039-0.068,0.051-0.106H73.656z M81.6,88.211H79.73v2.799h-0.742v-3.344h3.354v3.344H81.6V88.211z M85.959,91.082
			c-0.221,0-0.422-0.022-0.602-0.064c-0.182-0.041-0.34-0.099-0.479-0.175c-0.141-0.077-0.264-0.169-0.367-0.276
			c-0.104-0.105-0.188-0.224-0.252-0.352c-0.07-0.131-0.119-0.27-0.152-0.418s-0.047-0.301-0.047-0.46
			c0-0.157,0.016-0.304,0.049-0.456c0.035-0.145,0.086-0.285,0.156-0.41c0.068-0.129,0.156-0.25,0.26-0.355
			c0.107-0.109,0.227-0.201,0.369-0.276c0.139-0.077,0.299-0.138,0.479-0.18c0.174-0.044,0.369-0.063,0.586-0.063
			c0.219,0,0.42,0.02,0.6,0.06c0.178,0.044,0.34,0.101,0.482,0.177c0.139,0.077,0.26,0.168,0.359,0.272
			c0.105,0.11,0.195,0.228,0.258,0.356c0.066,0.127,0.119,0.267,0.15,0.415c0.033,0.148,0.049,0.302,0.049,0.461
			c0,0.155-0.016,0.308-0.051,0.454c-0.031,0.146-0.086,0.287-0.152,0.412c-0.074,0.131-0.158,0.252-0.262,0.356
			c-0.105,0.109-0.23,0.199-0.371,0.278c-0.141,0.076-0.299,0.138-0.475,0.18C86.367,91.06,86.172,91.082,85.959,91.082z
			 M85.959,90.496c0.137,0,0.258-0.016,0.367-0.045c0.109-0.026,0.205-0.066,0.289-0.117s0.156-0.112,0.215-0.183
			c0.063-0.071,0.111-0.149,0.15-0.237c0.037-0.084,0.066-0.175,0.084-0.275c0.018-0.095,0.027-0.195,0.027-0.302
			c0-0.103-0.01-0.204-0.027-0.302c-0.018-0.102-0.047-0.189-0.084-0.275c-0.039-0.086-0.088-0.164-0.15-0.236
			c-0.059-0.07-0.131-0.132-0.215-0.182s-0.18-0.092-0.289-0.119c-0.109-0.028-0.23-0.043-0.367-0.043s-0.258,0.015-0.367,0.043
			c-0.107,0.027-0.207,0.069-0.291,0.119s-0.156,0.111-0.217,0.182c-0.059,0.072-0.107,0.15-0.146,0.236s-0.07,0.174-0.086,0.275
			c-0.018,0.098-0.027,0.199-0.027,0.302c0,0.106,0.01,0.207,0.027,0.302c0.016,0.101,0.047,0.191,0.086,0.275
			c0.039,0.088,0.088,0.166,0.146,0.237c0.061,0.07,0.133,0.132,0.217,0.183s0.184,0.091,0.291,0.117
			C85.701,90.48,85.822,90.496,85.959,90.496z M89.572,91.01v-3.344h1.482c0.17,0,0.324,0.009,0.467,0.029
			c0.143,0.018,0.271,0.051,0.389,0.091c0.113,0.038,0.217,0.09,0.305,0.147c0.086,0.063,0.162,0.131,0.221,0.213
			c0.059,0.084,0.105,0.173,0.135,0.274c0.029,0.103,0.043,0.214,0.043,0.341c0,0.119-0.014,0.231-0.043,0.333
			c-0.033,0.103-0.076,0.192-0.137,0.273c-0.061,0.083-0.139,0.155-0.225,0.214c-0.096,0.063-0.199,0.112-0.32,0.156
			c-0.119,0.041-0.256,0.073-0.406,0.094c-0.148,0.02-0.316,0.031-0.496,0.031h-0.67v1.146H89.572z M90.941,89.317
			c0.168,0,0.309-0.013,0.424-0.032s0.207-0.055,0.279-0.104c0.07-0.047,0.121-0.104,0.152-0.172
			c0.031-0.072,0.045-0.153,0.045-0.25c0-0.095-0.014-0.172-0.045-0.24c-0.031-0.072-0.078-0.128-0.148-0.174
			c-0.07-0.047-0.156-0.077-0.266-0.1c-0.109-0.023-0.24-0.035-0.396-0.035h-0.67v1.106H90.941z M95.143,91.01v-2.799h-1.229v-0.545
			h3.203v0.545h-1.232v2.799H95.143z M101.557,91.01l-0.361-0.693h-1.906l-0.354,0.693h-0.826l1.754-3.344h0.775l1.752,3.344
			H101.557z M100.51,88.906c-0.047-0.086-0.09-0.172-0.133-0.26c-0.045-0.084-0.086-0.173-0.129-0.26
			c-0.047,0.087-0.09,0.176-0.133,0.265c-0.047,0.087-0.086,0.174-0.133,0.259l-0.416,0.829h1.359L100.51,88.906z M106.398,91.01
			v-2.799h-1.283l-0.016,0.297c-0.01,0.246-0.025,0.473-0.049,0.674c-0.021,0.205-0.049,0.391-0.082,0.557
			c-0.029,0.166-0.068,0.311-0.113,0.443c-0.043,0.133-0.09,0.245-0.146,0.342c-0.055,0.1-0.117,0.184-0.186,0.251
			c-0.066,0.068-0.141,0.127-0.223,0.168c-0.08,0.043-0.168,0.075-0.264,0.095c-0.094,0.022-0.195,0.027-0.305,0.027
			c-0.031,0-0.066,0-0.102-0.001c-0.035-0.004-0.072-0.009-0.111-0.017c-0.033-0.004-0.066-0.012-0.102-0.021
			s-0.064-0.021-0.086-0.033v-0.52c0.041,0.007,0.08,0.015,0.111,0.02c0.035,0.004,0.07,0.007,0.107,0.007
			c0.066,0,0.127-0.012,0.184-0.031c0.057-0.018,0.111-0.044,0.158-0.088c0.053-0.038,0.096-0.089,0.139-0.148
			c0.043-0.064,0.082-0.139,0.117-0.221c0.035-0.085,0.064-0.182,0.092-0.291c0.025-0.107,0.049-0.229,0.07-0.361
			c0.018-0.134,0.035-0.283,0.045-0.443c0.014-0.162,0.023-0.335,0.027-0.524l0.018-0.726h2.742v3.344H106.398z"/>
	</g>
</g>
</svg>
